<svg xmlns="http://www.w3.org/2000/svg" viewBox="0 0 64 64" fill="none">
  <!-- Ocean background -->
  <circle cx="32" cy="32" r="32" fill="#0c4a6e"/>
  <!-- Coral branch left -->
  <path d="M18 46 L18 30 M18 30 L14 22 M18 30 L22 20 M18 30 L18 22" stroke="#f97316" stroke-width="2.5" stroke-linecap="round"/>
  <!-- Coral branch center -->
  <path d="M28 48 L28 28 M28 28 L24 18 M28 28 L32 16 M28 28 L30 22" stroke="#ef4444" stroke-width="2.5" stroke-linecap="round"/>
  <!-- Coral branch right -->
  <path d="M40 46 L40 32 M40 32 L36 22 M40 32 L44 20 M40 32 L42 26" stroke="#f97316" stroke-width="2.5" stroke-linecap="round"/>
  <!-- Seabed -->
  <path d="M12 48 Q32 44 52 48" stroke="#38bdf8" stroke-width="2" stroke-linecap="round" fill="none"/>
  <!-- Small fish -->
  <ellipse cx="50" cy="26" rx="4" ry="2.5" fill="#38bdf8" opacity="0.8"/>
  <path d="M54 26 L57 24 L57 28 Z" fill="#38bdf8" opacity="0.8"/>
</svg>
